{
	"asset":{
		"generator":"Khronos glTF Blender I/O v4.4.56",
		"version":"2.0"
	},
	"scene":0,
	"scenes":[
		{
			"name":"Scene",
			"nodes":[
				20
			]
		}
	],
	"nodes":[
		{
			"mesh":0,
			"name":"Object_10"
		},
		{
			"mesh":1,
			"name":"Object_11"
		},
		{
			"mesh":2,
			"name":"Object_12"
		},
		{
			"mesh":3,
			"name":"Object_13"
		},
		{
			"mesh":4,
			"name":"Object_14"
		},
		{
			"mesh":5,
			"name":"Object_15"
		},
		{
			"mesh":6,
			"name":"Object_16"
		},
		{
			"mesh":7,
			"name":"Object_17"
		},
		{
			"mesh":8,
			"name":"Object_18"
		},
		{
			"mesh":9,
			"name":"Object_19"
		},
		{
			"mesh":10,
			"name":"Object_2"
		},
		{
			"mesh":11,
			"name":"Object_20"
		},
		{
			"mesh":12,
			"name":"Object_3"
		},
		{
			"mesh":13,
			"name":"Object_4"
		},
		{
			"mesh":14,
			"name":"Object_5"
		},
		{
			"mesh":15,
			"name":"Object_6"
		},
		{
			"mesh":16,
			"name":"Object_7"
		},
		{
			"mesh":17,
			"name":"Object_8"
		},
		{
			"mesh":18,
			"name":"Object_9"
		},
		{
			"children":[
				0,
				1,
				2,
				3,
				4,
				5,
				6,
				7,
				8,
				9,
				10,
				11,
				12,
				13,
				14,
				15,
				16,
				17,
				18
			],
			"name":"Mansion_model.obj.cleaner.materialmerger.gles"
		},
		{
			"children":[
				19
			],
			"name":"Sketchfab_model",
			"rotation":[
				-0.70710688829422,
				0,
				0,
				0.7071066498756409
			]
		}
	],
	"materials":[
		{
			"doubleSided":true,
			"name":"cement",
			"normalTexture":{
				"index":0
			},
			"pbrMetallicRoughness":{
				"baseColorTexture":{
					"index":1
				},
				"metallicRoughnessTexture":{
					"index":2
				}
			}
		},
		{
			"doubleSided":true,
			"name":"brick",
			"normalTexture":{
				"index":3
			},
			"pbrMetallicRoughness":{
				"baseColorTexture":{
					"index":4
				},
				"metallicFactor":0,
				"metallicRoughnessTexture":{
					"index":5
				}
			}
		},
		{
			"alphaMode":"BLEND",
			"doubleSided":true,
			"name":"tile",
			"normalTexture":{
				"index":6
			},
			"pbrMetallicRoughness":{
				"baseColorTexture":{
					"index":7
				},
				"metallicRoughnessTexture":{
					"index":8
				}
			}
		}
	],
	"meshes":[
		{
			"name":"Object_8",
			"primitives":[
				{
					"attributes":{
						"POSITION":0,
						"NORMAL":1,
						"TEXCOORD_0":2
					},
					"indices":3,
					"material":0
				}
			]
		},
		{
			"name":"Object_9",
			"primitives":[
				{
					"attributes":{
						"POSITION":4,
						"NORMAL":5,
						"TEXCOORD_0":6
					},
					"indices":7,
					"material":0
				}
			]
		},
		{
			"name":"Object_10",
			"primitives":[
				{
					"attributes":{
						"POSITION":8,
						"NORMAL":9,
						"TEXCOORD_0":10
					},
					"indices":11,
					"material":0
				}
			]
		},
		{
			"name":"Object_11",
			"primitives":[
				{
					"attributes":{
						"POSITION":12,
						"NORMAL":13,
						"TEXCOORD_0":14
					},
					"indices":15,
					"material":0
				}
			]
		},
		{
			"name":"Object_12",
			"primitives":[
				{
					"attributes":{
						"POSITION":16,
						"NORMAL":17,
						"TEXCOORD_0":18
					},
					"indices":19,
					"material":0
				}
			]
		},
		{
			"name":"Object_13",
			"primitives":[
				{
					"attributes":{
						"POSITION":20,
						"NORMAL":21,
						"TEXCOORD_0":22
					},
					"indices":23,
					"material":0
				}
			]
		},
		{
			"name":"Object_14",
			"primitives":[
				{
					"attributes":{
						"POSITION":24,
						"NORMAL":25,
						"TEXCOORD_0":26
					},
					"indices":27,
					"material":1
				}
			]
		},
		{
			"name":"Object_15",
			"primitives":[
				{
					"attributes":{
						"POSITION":28,
						"NORMAL":29,
						"TEXCOORD_0":30
					},
					"indices":31,
					"material":2
				}
			]
		},
		{
			"name":"Object_16",
			"primitives":[
				{
					"attributes":{
						"POSITION":32,
						"NORMAL":33,
						"TEXCOORD_0":34
					},
					"indices":35,
					"material":2
				}
			]
		},
		{
			"name":"Object_17",
			"primitives":[
				{
					"attributes":{
						"POSITION":36,
						"NORMAL":37,
						"TEXCOORD_0":38
					},
					"indices":39,
					"material":2
				}
			]
		},
		{
			"name":"Object_0",
			"primitives":[
				{
					"attributes":{
						"POSITION":40,
						"NORMAL":41,
						"TEXCOORD_0":42
					},
					"indices":43,
					"material":0
				}
			]
		},
		{
			"name":"Object_18",
			"primitives":[
				{
					"attributes":{
						"POSITION":44,
						"NORMAL":45,
						"TEXCOORD_0":46
					},
					"indices":47,
					"material":2
				}
			]
		},
		{
			"name":"Object_1",
			"primitives":[
				{
					"attributes":{
						"POSITION":48,
						"NORMAL":49,
						"TEXCOORD_0":50
					},
					"indices":51,
					"material":0
				}
			]
		},
		{
			"name":"Object_2",
			"primitives":[
				{
					"attributes":{
						"POSITION":52,
						"NORMAL":53,
						"TEXCOORD_0":54
					},
					"indices":55,
					"material":0
				}
			]
		},
		{
			"name":"Object_3",
			"primitives":[
				{
					"attributes":{
						"POSITION":56,
						"NORMAL":57,
						"TEXCOORD_0":58
					},
					"indices":59,
					"material":0
				}
			]
		},
		{
			"name":"Object_4",
			"primitives":[
				{
					"attributes":{
						"POSITION":60,
						"NORMAL":61,
						"TEXCOORD_0":62
					},
					"indices":63,
					"material":0
				}
			]
		},
		{
			"name":"Object_5",
			"primitives":[
				{
					"attributes":{
						"POSITION":64,
						"NORMAL":65,
						"TEXCOORD_0":66
					},
					"indices":67,
					"material":0
				}
			]
		},
		{
			"name":"Object_6",
			"primitives":[
				{
					"attributes":{
						"POSITION":68,
						"NORMAL":69,
						"TEXCOORD_0":70
					},
					"indices":71,
					"material":0
				}
			]
		},
		{
			"name":"Object_7",
			"primitives":[
				{
					"attributes":{
						"POSITION":72,
						"NORMAL":73,
						"TEXCOORD_0":74
					},
					"indices":75,
					"material":0
				}
			]
		}
	],
	"textures":[
		{
			"sampler":0,
			"source":0
		},
		{
			"sampler":0,
			"source":1
		},
		{
			"sampler":0,
			"source":2
		},
		{
			"sampler":0,
			"source":3
		},
		{
			"sampler":0,
			"source":4
		},
		{
			"sampler":0,
			"source":5
		},
		{
			"sampler":0,
			"source":6
		},
		{
			"sampler":0,
			"source":7
		},
		{
			"sampler":0,
			"source":8
		}
	],
	"images":[
		{
			"mimeType":"image/png",
			"name":"cement_normal",
			"uri":"cement_normal.png"
		},
		{
			"mimeType":"image/png",
			"name":"cement_baseColor",
			"uri":"cement_baseColor.png"
		},
		{
			"mimeType":"image/png",
			"name":"cement_metallicRoughness",
			"uri":"cement_metallicRoughness.png"
		},
		{
			"mimeType":"image/png",
			"name":"brick_normal",
			"uri":"brick_normal.png"
		},
		{
			"mimeType":"image/png",
			"name":"brick_baseColor",
			"uri":"brick_baseColor.png"
		},
		{
			"mimeType":"image/png",
			"name":"brick_metallicRoughness",
			"uri":"brick_metallicRoughness.png"
		},
		{
			"mimeType":"image/png",
			"name":"tile_normal",
			"uri":"tile_normal.png"
		},
		{
			"mimeType":"image/png",
			"name":"tile_baseColor",
			"uri":"tile_baseColor.png"
		},
		{
			"mimeType":"image/png",
			"name":"tile_metallicRoughness",
			"uri":"tile_metallicRoughness.png"
		}
	],
	"accessors":[
		{
			"bufferView":0,
			"componentType":5126,
			"count":14134,
			"max":[
				1.1290229558944702,
				-2.5000009536743164,
				0.9100000262260437
			],
			"min":[
				-1.1290229558944702,
				-3.5455970764160156,
				0.15000000596046448
			],
			"type":"VEC3"
		},
		{
			"bufferView":1,
			"componentType":5126,
			"count":14134,
			"type":"VEC3"
		},
		{
			"bufferView":2,
			"componentType":5126,
			"count":14134,
			"type":"VEC2"
		},
		{
			"bufferView":3,
			"componentType":5123,
			"count":53256,
			"type":"SCALAR"
		},
		{
			"bufferView":4,
			"componentType":5126,
			"count":4640,
			"max":[
				2.0172410011291504,
				-0.875,
				4.199999809265137
			],
			"min":[
				-2.0172410011291504,
				-2.5172410011291504,
				0.5
			],
			"type":"VEC3"
		},
		{
			"bufferView":5,
			"componentType":5126,
			"count":4640,
			"type":"VEC3"
		},
		{
			"bufferView":6,
			"componentType":5126,
			"count":4640,
			"type":"VEC2"
		},
		{
			"bufferView":7,
			"componentType":5123,
			"count":7644,
			"type":"SCALAR"
		},
		{
			"bufferView":8,
			"componentType":5126,
			"count":6853,
			"max":[
				7.710000038146973,
				3.7100000381469727,
				2.549999952316284
			],
			"min":[
				-7.710000038146973,
				-1.2599999904632568,
				2.299999952316284
			],
			"type":"VEC3"
		},
		{
			"bufferView":9,
			"componentType":5126,
			"count":6853,
			"type":"VEC3"
		},
		{
			"bufferView":10,
			"componentType":5126,
			"count":6853,
			"type":"VEC2"
		},
		{
			"bufferView":11,
			"componentType":5123,
			"count":11880,
			"type":"SCALAR"
		},
		{
			"bufferView":12,
			"componentType":5126,
			"count":30695,
			"max":[
				1.9392980337142944,
				-1.1607019901275635,
				3.625
			],
			"min":[
				-1.9392980337142944,
				-2.4392991065979004,
				1
			],
			"type":"VEC3"
		},
		{
			"bufferView":13,
			"componentType":5126,
			"count":30695,
			"type":"VEC3"
		},
		{
			"bufferView":14,
			"componentType":5126,
			"count":30695,
			"type":"VEC2"
		},
		{
			"bufferView":15,
			"componentType":5123,
			"count":96000,
			"type":"SCALAR"
		},
		{
			"bufferView":16,
			"componentType":5126,
			"count":1374,
			"max":[
				1.8887170553207397,
				-2.6549999713897705,
				5.860657215118408
			],
			"min":[
				-1.8887170553207397,
				-2.672240972518921,
				4.915779113769531
			],
			"type":"VEC3"
		},
		{
			"bufferView":17,
			"componentType":5126,
			"count":1374,
			"type":"VEC3"
		},
		{
			"bufferView":18,
			"componentType":5126,
			"count":1374,
			"type":"VEC2"
		},
		{
			"bufferView":19,
			"componentType":5123,
			"count":1764,
			"type":"SCALAR"
		},
		{
			"bufferView":20,
			"componentType":5126,
			"count":18756,
			"max":[
				7.61000394821167,
				3.5824999809265137,
				5.87623405456543
			],
			"min":[
				-7.61000394821167,
				-2.609999895095825,
				4.400000095367432
			],
			"type":"VEC3"
		},
		{
			"bufferView":21,
			"componentType":5126,
			"count":18756,
			"type":"VEC3"
		},
		{
			"bufferView":22,
			"componentType":5126,
			"count":18756,
			"type":"VEC2"
		},
		{
			"bufferView":23,
			"componentType":5123,
			"count":27060,
			"type":"SCALAR"
		},
		{
			"bufferView":24,
			"componentType":5126,
			"count":4700,
			"max":[
				7.550000190734863,
				3.5499989986419678,
				5.725000858306885
			],
			"min":[
				-7.550000190734863,
				-1.0499999523162842,
				0.5
			],
			"type":"VEC3"
		},
		{
			"bufferView":25,
			"componentType":5126,
			"count":4700,
			"type":"VEC3"
		},
		{
			"bufferView":26,
			"componentType":5126,
			"count":4700,
			"type":"VEC2"
		},
		{
			"bufferView":27,
			"componentType":5123,
			"count":7368,
			"type":"SCALAR"
		},
		{
			"bufferView":28,
			"componentType":5126,
			"count":5150,
			"max":[
				7.602342128753662,
				1.5798519849777222,
				6.289358139038086
			],
			"min":[
				-7.702301025390625,
				-2.608768939971924,
				5.954747200012207
			],
			"type":"VEC3"
		},
		{
			"bufferView":29,
			"componentType":5126,
			"count":5150,
			"type":"VEC3"
		},
		{
			"bufferView":30,
			"componentType":5126,
			"count":5150,
			"type":"VEC2"
		},
		{
			"bufferView":31,
			"componentType":5123,
			"count":11280,
			"type":"SCALAR"
		},
		{
			"bufferView":32,
			"componentType":5126,
			"count":57737,
			"max":[
				7.55000114440918,
				3.549999952316284,
				3.950000047683716
			],
			"min":[
				-7.550000190734863,
				-1.0499999523162842,
				2.849998950958252
			],
			"type":"VEC3"
		},
		{
			"bufferView":33,
			"componentType":5126,
			"count":57737,
			"type":"VEC3"
		},
		{
			"bufferView":34,
			"componentType":5126,
			"count":57737,
			"type":"VEC2"
		},
		{
			"bufferView":35,
			"componentType":5123,
			"count":115710,
			"type":"SCALAR"
		},
		{
			"bufferView":36,
			"componentType":5126,
			"count":9090,
			"max":[
				7.69999885559082,
				3.5000009536743164,
				7.15058708190918
			],
			"min":[
				-7.69999885559082,
				-2.599998950958252,
				0.5
			],
			"type":"VEC3"
		},
		{
			"bufferView":37,
			"componentType":5126,
			"count":9090,
			"type":"VEC3"
		},
		{
			"bufferView":38,
			"componentType":5126,
			"count":9090,
			"type":"VEC2"
		},
		{
			"bufferView":39,
			"componentType":5123,
			"count":17556,
			"type":"SCALAR"
		},
		{
			"bufferView":40,
			"componentType":5126,
			"count":8797,
			"max":[
				7.840003967285156,
				3.8399999141693115,
				6.25
			],
			"min":[
				-7.840003967285156,
				-4.111238956451416,
				0
			],
			"type":"VEC3"
		},
		{
			"bufferView":41,
			"componentType":5126,
			"count":8797,
			"type":"VEC3"
		},
		{
			"bufferView":42,
			"componentType":5126,
			"count":8797,
			"type":"VEC2"
		},
		{
			"bufferView":43,
			"componentType":5123,
			"count":18078,
			"type":"SCALAR"
		},
		{
			"bufferView":44,
			"componentType":5126,
			"count":24350,
			"max":[
				7.579998970031738,
				3.58000111579895,
				2.200000047683716
			],
			"min":[
				-7.579998970031738,
				-1.0800000429153442,
				0.7850000262260437
			],
			"type":"VEC3"
		},
		{
			"bufferView":45,
			"componentType":5126,
			"count":24350,
			"type":"VEC3"
		},
		{
			"bufferView":46,
			"componentType":5126,
			"count":24350,
			"type":"VEC2"
		},
		{
			"bufferView":47,
			"componentType":5123,
			"count":41364,
			"type":"SCALAR"
		},
		{
			"bufferView":48,
			"componentType":5126,
			"count":4899,
			"max":[
				5.176249980926514,
				0.949999988079071,
				6
			],
			"min":[
				-5.176249980926514,
				-2.759999990463257,
				0.5
			],
			"type":"VEC3"
		},
		{
			"bufferView":49,
			"componentType":5126,
			"count":4899,
			"type":"VEC3"
		},
		{
			"bufferView":50,
			"componentType":5126,
			"count":4899,
			"type":"VEC2"
		},
		{
			"bufferView":51,
			"componentType":5123,
			"count":8562,
			"type":"SCALAR"
		},
		{
			"bufferView":52,
			"componentType":5126,
			"count":68872,
			"max":[
				7.779191970825195,
				3.779191017150879,
				6.0245041847229
			],
			"min":[
				-7.779191017150879,
				-2.779189109802246,
				4.613786220550537
			],
			"type":"VEC3"
		},
		{
			"bufferView":53,
			"componentType":5126,
			"count":68872,
			"type":"VEC3"
		},
		{
			"bufferView":54,
			"componentType":5126,
			"count":68872,
			"type":"VEC2"
		},
		{
			"bufferView":55,
			"componentType":5125,
			"count":193212,
			"type":"SCALAR"
		},
		{
			"bufferView":56,
			"componentType":5126,
			"count":20182,
			"max":[
				7.565616130828857,
				3.779191017150879,
				4.75
			],
			"min":[
				-1.9615240097045898,
				-2.779189109802246,
				4.613786220550537
			],
			"type":"VEC3"
		},
		{
			"bufferView":57,
			"componentType":5126,
			"count":20182,
			"type":"VEC3"
		},
		{
			"bufferView":58,
			"componentType":5126,
			"count":20182,
			"type":"VEC2"
		},
		{
			"bufferView":59,
			"componentType":5123,
			"count":55542,
			"type":"SCALAR"
		},
		{
			"bufferView":60,
			"componentType":5126,
			"count":268,
			"max":[
				0.6000000238418579,
				-1,
				2.299999952316284
			],
			"min":[
				-0.6000000238418579,
				-1.100000023841858,
				0.5
			],
			"type":"VEC3"
		},
		{
			"bufferView":61,
			"componentType":5126,
			"count":268,
			"type":"VEC3"
		},
		{
			"bufferView":62,
			"componentType":5126,
			"count":268,
			"type":"VEC2"
		},
		{
			"bufferView":63,
			"componentType":5123,
			"count":396,
			"type":"SCALAR"
		},
		{
			"bufferView":64,
			"componentType":5126,
			"count":10670,
			"max":[
				1.8250010013580322,
				-1.5499989986419678,
				1
			],
			"min":[
				-1.8250010013580322,
				-2.325000047683716,
				0.5
			],
			"type":"VEC3"
		},
		{
			"bufferView":65,
			"componentType":5126,
			"count":10670,
			"type":"VEC3"
		},
		{
			"bufferView":66,
			"componentType":5126,
			"count":10670,
			"type":"VEC2"
		},
		{
			"bufferView":67,
			"componentType":5123,
			"count":39024,
			"type":"SCALAR"
		},
		{
			"bufferView":68,
			"componentType":5126,
			"count":6114,
			"max":[
				7.775000095367432,
				3.7750000953674316,
				4.199999809265137
			],
			"min":[
				-7.775000095367432,
				-3.5999999046325684,
				0
			],
			"type":"VEC3"
		},
		{
			"bufferView":69,
			"componentType":5126,
			"count":6114,
			"type":"VEC3"
		},
		{
			"bufferView":70,
			"componentType":5126,
			"count":6114,
			"type":"VEC2"
		},
		{
			"bufferView":71,
			"componentType":5123,
			"count":9216,
			"type":"SCALAR"
		},
		{
			"bufferView":72,
			"componentType":5126,
			"count":11512,
			"max":[
				7.622241973876953,
				3.6222410202026367,
				2.4600000381469727
			],
			"min":[
				-7.622241020202637,
				-1.1843940019607544,
				2.390000104904175
			],
			"type":"VEC3"
		},
		{
			"bufferView":73,
			"componentType":5126,
			"count":11512,
			"type":"VEC3"
		},
		{
			"bufferView":74,
			"componentType":5126,
			"count":11512,
			"type":"VEC2"
		},
		{
			"bufferView":75,
			"componentType":5123,
			"count":16416,
			"type":"SCALAR"
		}
	],
	"bufferViews":[
		{
			"buffer":0,
			"byteLength":169608,
			"byteOffset":0,
			"target":34962
		},
		{
			"buffer":0,
			"byteLength":169608,
			"byteOffset":169608,
			"target":34962
		},
		{
			"buffer":0,
			"byteLength":113072,
			"byteOffset":339216,
			"target":34962
		},
		{
			"buffer":0,
			"byteLength":106512,
			"byteOffset":452288,
			"target":34963
		},
		{
			"buffer":0,
			"byteLength":55680,
			"byteOffset":558800,
			"target":34962
		},
		{
			"buffer":0,
			"byteLength":55680,
			"byteOffset":614480,
			"target":34962
		},
		{
			"buffer":0,
			"byteLength":37120,
			"byteOffset":670160,
			"target":34962
		},
		{
			"buffer":0,
			"byteLength":15288,
			"byteOffset":707280,
			"target":34963
		},
		{
			"buffer":0,
			"byteLength":82236,
			"byteOffset":722568,
			"target":34962
		},
		{
			"buffer":0,
			"byteLength":82236,
			"byteOffset":804804,
			"target":34962
		},
		{
			"buffer":0,
			"byteLength":54824,
			"byteOffset":887040,
			"target":34962
		},
		{
			"buffer":0,
			"byteLength":23760,
			"byteOffset":941864,
			"target":34963
		},
		{
			"buffer":0,
			"byteLength":368340,
			"byteOffset":965624,
			"target":34962
		},
		{
			"buffer":0,
			"byteLength":368340,
			"byteOffset":1333964,
			"target":34962
		},
		{
			"buffer":0,
			"byteLength":245560,
			"byteOffset":1702304,
			"target":34962
		},
		{
			"buffer":0,
			"byteLength":192000,
			"byteOffset":1947864,
			"target":34963
		},
		{
			"buffer":0,
			"byteLength":16488,
			"byteOffset":2139864,
			"target":34962
		},
		{
			"buffer":0,
			"byteLength":16488,
			"byteOffset":2156352,
			"target":34962
		},
		{
			"buffer":0,
			"byteLength":10992,
			"byteOffset":2172840,
			"target":34962
		},
		{
			"buffer":0,
			"byteLength":3528,
			"byteOffset":2183832,
			"target":34963
		},
		{
			"buffer":0,
			"byteLength":225072,
			"byteOffset":2187360,
			"target":34962
		},
		{
			"buffer":0,
			"byteLength":225072,
			"byteOffset":2412432,
			"target":34962
		},
		{
			"buffer":0,
			"byteLength":150048,
			"byteOffset":2637504,
			"target":34962
		},
		{
			"buffer":0,
			"byteLength":54120,
			"byteOffset":2787552,
			"target":34963
		},
		{
			"buffer":0,
			"byteLength":56400,
			"byteOffset":2841672,
			"target":34962
		},
		{
			"buffer":0,
			"byteLength":56400,
			"byteOffset":2898072,
			"target":34962
		},
		{
			"buffer":0,
			"byteLength":37600,
			"byteOffset":2954472,
			"target":34962
		},
		{
			"buffer":0,
			"byteLength":14736,
			"byteOffset":2992072,
			"target":34963
		},
		{
			"buffer":0,
			"byteLength":61800,
			"byteOffset":3006808,
			"target":34962
		},
		{
			"buffer":0,
			"byteLength":61800,
			"byteOffset":3068608,
			"target":34962
		},
		{
			"buffer":0,
			"byteLength":41200,
			"byteOffset":3130408,
			"target":34962
		},
		{
			"buffer":0,
			"byteLength":22560,
			"byteOffset":3171608,
			"target":34963
		},
		{
			"buffer":0,
			"byteLength":692844,
			"byteOffset":3194168,
			"target":34962
		},
		{
			"buffer":0,
			"byteLength":692844,
			"byteOffset":3887012,
			"target":34962
		},
		{
			"buffer":0,
			"byteLength":461896,
			"byteOffset":4579856,
			"target":34962
		},
		{
			"buffer":0,
			"byteLength":231420,
			"byteOffset":5041752,
			"target":34963
		},
		{
			"buffer":0,
			"byteLength":109080,
			"byteOffset":5273172,
			"target":34962
		},
		{
			"buffer":0,
			"byteLength":109080,
			"byteOffset":5382252,
			"target":34962
		},
		{
			"buffer":0,
			"byteLength":72720,
			"byteOffset":5491332,
			"target":34962
		},
		{
			"buffer":0,
			"byteLength":35112,
			"byteOffset":5564052,
			"target":34963
		},
		{
			"buffer":0,
			"byteLength":105564,
			"byteOffset":5599164,
			"target":34962
		},
		{
			"buffer":0,
			"byteLength":105564,
			"byteOffset":5704728,
			"target":34962
		},
		{
			"buffer":0,
			"byteLength":70376,
			"byteOffset":5810292,
			"target":34962
		},
		{
			"buffer":0,
			"byteLength":36156,
			"byteOffset":5880668,
			"target":34963
		},
		{
			"buffer":0,
			"byteLength":292200,
			"byteOffset":5916824,
			"target":34962
		},
		{
			"buffer":0,
			"byteLength":292200,
			"byteOffset":6209024,
			"target":34962
		},
		{
			"buffer":0,
			"byteLength":194800,
			"byteOffset":6501224,
			"target":34962
		},
		{
			"buffer":0,
			"byteLength":82728,
			"byteOffset":6696024,
			"target":34963
		},
		{
			"buffer":0,
			"byteLength":58788,
			"byteOffset":6778752,
			"target":34962
		},
		{
			"buffer":0,
			"byteLength":58788,
			"byteOffset":6837540,
			"target":34962
		},
		{
			"buffer":0,
			"byteLength":39192,
			"byteOffset":6896328,
			"target":34962
		},
		{
			"buffer":0,
			"byteLength":17124,
			"byteOffset":6935520,
			"target":34963
		},
		{
			"buffer":0,
			"byteLength":826464,
			"byteOffset":6952644,
			"target":34962
		},
		{
			"buffer":0,
			"byteLength":826464,
			"byteOffset":7779108,
			"target":34962
		},
		{
			"buffer":0,
			"byteLength":550976,
			"byteOffset":8605572,
			"target":34962
		},
		{
			"buffer":0,
			"byteLength":772848,
			"byteOffset":9156548,
			"target":34963
		},
		{
			"buffer":0,
			"byteLength":242184,
			"byteOffset":9929396,
			"target":34962
		},
		{
			"buffer":0,
			"byteLength":242184,
			"byteOffset":10171580,
			"target":34962
		},
		{
			"buffer":0,
			"byteLength":161456,
			"byteOffset":10413764,
			"target":34962
		},
		{
			"buffer":0,
			"byteLength":111084,
			"byteOffset":10575220,
			"target":34963
		},
		{
			"buffer":0,
			"byteLength":3216,
			"byteOffset":10686304,
			"target":34962
		},
		{
			"buffer":0,
			"byteLength":3216,
			"byteOffset":10689520,
			"target":34962
		},
		{
			"buffer":0,
			"byteLength":2144,
			"byteOffset":10692736,
			"target":34962
		},
		{
			"buffer":0,
			"byteLength":792,
			"byteOffset":10694880,
			"target":34963
		},
		{
			"buffer":0,
			"byteLength":128040,
			"byteOffset":10695672,
			"target":34962
		},
		{
			"buffer":0,
			"byteLength":128040,
			"byteOffset":10823712,
			"target":34962
		},
		{
			"buffer":0,
			"byteLength":85360,
			"byteOffset":10951752,
			"target":34962
		},
		{
			"buffer":0,
			"byteLength":78048,
			"byteOffset":11037112,
			"target":34963
		},
		{
			"buffer":0,
			"byteLength":73368,
			"byteOffset":11115160,
			"target":34962
		},
		{
			"buffer":0,
			"byteLength":73368,
			"byteOffset":11188528,
			"target":34962
		},
		{
			"buffer":0,
			"byteLength":48912,
			"byteOffset":11261896,
			"target":34962
		},
		{
			"buffer":0,
			"byteLength":18432,
			"byteOffset":11310808,
			"target":34963
		},
		{
			"buffer":0,
			"byteLength":138144,
			"byteOffset":11329240,
			"target":34962
		},
		{
			"buffer":0,
			"byteLength":138144,
			"byteOffset":11467384,
			"target":34962
		},
		{
			"buffer":0,
			"byteLength":92096,
			"byteOffset":11605528,
			"target":34962
		},
		{
			"buffer":0,
			"byteLength":32832,
			"byteOffset":11697624,
			"target":34963
		}
	],
	"samplers":[
		{
			"magFilter":9729,
			"minFilter":9987
		}
	],
	"buffers":[
		{
			"byteLength":11730456,
			"uri":"scene.bin"
		}
	]
}
